<svg xmlns="http://www.w3.org/2000/svg" width="2666.667" height="2666.667" viewBox="0 0 2666.667 2666.667"><path d="M20000 0H0v20000h20000z" style="fill:#0c0d16;fill-opacity:1;fill-rule:nonzero;stroke:none" transform="matrix(.13333 0 0 -.13333 0 2666.667)"/><path d="M9679.76 16830.8c-59.08-63.3-158.31-66.7-221.62-7.7-63.32 59.1-66.75 158.3-7.67 221.7 59.08 63.3 158.3 66.7 221.62 7.6 63.31-59.1 66.75-158.3 7.67-221.6m-485.32 452.9c-59.08-63.4-158.3-66.8-221.61-7.7-63.32 59.1-66.75 158.3-7.67 221.6s158.3 66.8 221.61 7.7c63.32-59.1 66.75-158.3 7.67-221.6m799.3 599.9c-641.04 611.8-1338.69 10-1338.69 10l-713.16-764.3 423.59-27.6-37.8-332.3 189.25-176.6 176.59 189.2 145.58-135.8 145.58-135.8-176.59-189.3 189.25-176.6 328.96 60.7 56.83-420.7 713.17 764.3s552.1 737.6-102.56 1334.8" style="fill:#63cbcd;fill-opacity:1;fill-rule:nonzero;stroke:none" transform="matrix(.13333 0 0 -.13333 0 2666.667)"/><path d="M11944.9 11963.1c-23-83.4-109.4-132.4-192.9-109.4-83.4 23-132.5 109.4-109.4 192.8 23 83.5 109.4 132.5 192.8 109.5 83.5-23 132.5-109.4 109.5-192.9m-639.9 176.6c-23-83.5-109.4-132.5-192.8-109.5-83.5 23-132.5 109.4-109.5 192.9 23 83.4 109.4 132.4 192.9 109.4 83.4-23 132.4-109.4 109.4-192.8m430.5 901.9c-851.5 245.3-1191.1-611.2-1191.1-611.2l-278-1007.7 388.2 171.7 120.5-312 249.5-68.9 68.8 249.6 192-53 191.9-52.9-68.8-249.6 249.5-68.8 263.4 206.2 245.3-346.5 278 1007.7s147.6 909.4-709.2 1135.4" style="fill:#e0a3d6;fill-opacity:1;fill-rule:nonzero;stroke:none" transform="matrix(.13333 0 0 -.13333 0 2666.667)"/><path d="M5385.17 17678.1c-23.03-83.5-109.37-132.5-192.85-109.5s-132.49 109.4-109.46 192.9c23.03 83.4 109.38 132.4 192.86 109.4s132.48-109.3 109.45-192.8m-639.87 176.5c-23.03-83.5-109.37-132.5-192.85-109.5-83.48 23.1-132.49 109.4-109.46 192.9s109.37 132.5 192.85 109.4c83.48-23 132.49-109.3 109.46-192.8m430.45 902c-851.5 245.2-1191.04-611.3-1191.04-611.3l-277.99-1007.7 388.19 171.8 120.46-312.1 249.52-68.8 68.84 249.5 191.94-53 191.94-52.9-68.83-249.5 249.52-68.9 263.43 206.2 245.22-346.5 277.99 1007.7s147.6 909.4-709.19 1135.5" style="fill:#f25562;fill-opacity:1;fill-rule:nonzero;stroke:none" transform="matrix(.13333 0 0 -.13333 0 2666.667)"/><path d="M4911.54 10649.6c-20.3-84.2-105-136-189.19-115.7-84.18 20.3-135.98 105-115.68 189.2s105 136 189.19 115.7c84.18-20.3 135.97-105 115.68-189.2m-155.58-645.3c-20.3-84.2-105-136-189.18-115.7-84.19 20.3-135.98 105-115.69 189.2 20.3 84.2 105 136 189.19 115.7s135.98-105 115.68-189.2m1096.76 1090.8-1016.22 245s-913.74 117.9-1111.73-745.8c-217.35-859 649.72-1170.5 649.72-1170.5l1016.22-245-184.31 382.4 307.98 130.6 60.67 251.6-251.64 60.7 46.67 193.5 46.67 193.6 251.63-60.7 60.67 251.7-214.64 256.5z" style="fill:#6270bf;fill-opacity:1;fill-rule:nonzero;stroke:none" transform="matrix(.13333 0 0 -.13333 0 2666.667)"/><path d="M7395.78 14111.9c-73.51-45.8-170.21-23.4-216 50.1s-23.32 170.2 50.18 216c73.51 45.8 170.21 23.4 216-50.1s23.32-170.3-50.18-216m-563.4-351c-73.51-45.8-170.21-23.3-216 50.2s-23.32 170.2 50.18 216c73.51 45.8 170.21 23.3 216-50.2s23.32-170.2-50.18-216m994.12 895.9s-568.79 724.8-1315.59 247.8c-757.33-460-357.54-1290.1-357.54-1290.1l552.71-887.2 136.73 401.8 311.13-122.8 219.71 136.8-136.87 219.7 169 105.3 169.01 105.3 136.86-219.7 219.71 136.8 26.87 333.5 420.98-54.5z" style="fill:#d459b4;fill-opacity:1;fill-rule:nonzero;stroke:none" transform="matrix(.13333 0 0 -.13333 0 2666.667)"/><path d="M8451.29 9756.4c-63.17-59.2-162.4-56.1-221.64 7.1s-56.06 162.4 7.11 221.6c63.16 59.3 162.39 56.1 221.63-7.1 59.24-63.1 56.06-162.4-7.1-221.6m-454.08 484.2c-63.17-59.3-162.4-56.1-221.64 7.1-59.24 63.1-56.06 162.4 7.11 221.6 63.16 59.2 162.39 56.1 221.63-7.1 59.25-63.2 56.06-162.4-7.1-221.6m1078.78-129.2 59.86 329.2-177.08 188.8-188.8-177.1-136.21 145.2-136.21 145.3 188.8 177-177.07 188.8-332.27-38.6-28.68 423.5-762.47-715.1s-599.97-699.2 13.42-1338.7c598.87-653.1 1335.05-99.1 1335.05-99.1l762.47 715.1z" style="fill:#f46f42;fill-opacity:1;fill-rule:nonzero;stroke:none" transform="matrix(.13333 0 0 -.13333 0 2666.667)"/><path d="M2640.07 13986.6c-82.35-26.8-170.82 18.2-197.61 100.6-26.79 82.3 18.26 170.8 100.61 197.6 82.36 26.8 170.83-18.3 197.61-100.6 26.79-82.4-18.26-170.9-100.61-197.6m-631.22-205.4c-82.35-26.7-170.83 18.3-197.61 100.7-26.79 82.3 18.26 170.8 100.61 197.6s170.82-18.3 197.61-100.6c26.78-82.4-18.26-170.9-100.61-197.7m1186.63 614.7s-363.19 846.7-1207.55 578c-850.19-249.8-677.41-1154.7-677.41-1154.7l305.86-999.6 235.51 353.1 269.05-198.7 247.52 75.7-75.74 247.5 190.4 58.3 190.4 58.2 75.73-247.5 247.52 75.7 111.75 315.3 392.81-160.9z" style="fill:#93d222;fill-opacity:1;fill-rule:nonzero;stroke:none" transform="matrix(.13333 0 0 -.13333 0 2666.667)"/><path d="M16646.7 6617.5c-183.1-219.7-509.5-249.4-729.2-66.4s-249.4 509.5-66.4 729.2c183.1 219.6 509.5 249.3 729.2 66.3s249.4-509.5 66.4-729.1m355.4 2943c-1011.7 842.9-2271.4 1191.5-3486 1073L15158.2 4944l-5889.58 535.2c114.13-1198 682.58-2353 1680.18-3184.2 2006.3-1671.5 4987.8-1400.199 6659.4 606.1 1671.5 2006.3 1400.2 4987.8-606.1 6659.4" style="fill:#e7eb14;fill-opacity:1;fill-rule:nonzero;stroke:none" transform="matrix(.13333 0 0 -.13333 0 2666.667)"/><path d="M5001.34 14950.1c0-170.6-138.36-309-309.03-309s-309.02 138.4-309.02 309c0 170.7 138.35 309.1 309.02 309.1s309.03-138.4 309.03-309.1M8053.52 7569.6c0-170.7-138.35-309.1-309.02-309.1s-309.02 138.4-309.02 309.1c0 170.6 138.35 309 309.02 309s309.02-138.4 309.02-309M10417.4 14258.6c0-170.6-138.4-309-309-309-170.7 0-309.05 138.4-309.05 309 0 170.7 138.35 309.1 309.05 309.1 170.6 0 309-138.4 309-309.1M12116.3 14955.8c65.6 66.1 172.4 66.4 238.5.7 66-65.7 66.3-172.5.6-238.6-65.7-66-172.5-66.3-238.5-.6-66.1 65.7-66.3 172.5-.6 238.5M2698.65 16683.8c65.69 66.1 172.48 66.4 238.52.7s66.33-172.5.64-238.6c-65.69-66-172.48-66.3-238.52-.6s-66.33 172.5-.64 238.5M2266.65 11024.6c65.69 66.1 172.48 66.3 238.52.7 66.04-65.7 66.33-172.5.64-238.6-65.69-66-172.48-66.3-238.52-.6s-66.33 172.5-.64 238.5M13056 7861c65.7 66 172.5 66.3 238.5.6 66.1-65.6 66.3-172.4.7-238.5-65.7-66-172.5-66.3-238.6-.6-66 65.7-66.3 172.5-.6 238.5M11284.8 10021c65.7 66.1 172.5 66.3 238.5.6 66.1-65.6 66.3-172.4.7-238.5-65.7-66-172.5-66.3-238.6-.6-66 65.7-66.3 172.5-.6 238.5M7180.79 18488.2c65.69 66.1 172.48 66.3 238.52.6 66.05-65.6 66.33-172.4.64-238.5-65.69-66-172.48-66.3-238.52-.6s-66.33 172.5-.64 238.5M5338.62 12587.8c65.69 66.1 172.48 66.4 238.52.7s66.33-172.5.64-238.6c-65.69-66-172.48-66.3-238.52-.6s-66.33 172.5-.64 238.5M8700.02 12526.5c65.69 66.1 172.48 66.4 238.52.7s66.33-172.5.64-238.5c-65.69-66.1-172.48-66.4-238.52-.7s-66.33 172.5-.64 238.5" style="fill:#fff;fill-opacity:1;fill-rule:nonzero;stroke:none" transform="matrix(.13333 0 0 -.13333 0 2666.667)"/><path d="M11321.7 7440c-84.9-17.1-167.7 37.7-184.8 122.6-17.2 84.9 37.7 167.6 122.5 184.8 84.9 17.2 167.6-37.7 184.8-122.6s-37.7-167.6-122.5-184.8m-650.6-131.7c-84.9-17.1-167.6 37.7-184.8 122.6s37.7 167.6 122.6 184.8c84.8 17.2 167.6-37.7 184.7-122.6 17.2-84.8-37.6-167.6-122.5-184.8m1244.7 491.6s-279.3 877.9-1145.8 692.4c-870.37-166.1-786.23-1083.5-786.23-1083.5l207.43-1024.6 268.6 328.7 248.5-224 253.7 51.4-51.3 253.7 195.1 39.5 195.2 39.5 51.3-253.7 253.7 51.3 141.9 303 375.3-198.3z" style="fill:#65c430;fill-opacity:1;fill-rule:nonzero;stroke:none" transform="matrix(.13333 0 0 -.13333 0 2666.667)"/></svg>